<?xml version="1.0" encoding="iso-8859-1"?>
<!-- Generator: Adobe Illustrator 18.0.0, SVG Export Plug-In . SVG Version: 6.00 Build 0)  -->
<!DOCTYPE svg PUBLIC "-//W3C//DTD SVG 1.1//EN" "http://www.w3.org/Graphics/SVG/1.1/DTD/svg11.dtd">
<svg version="1.1" xmlns="http://www.w3.org/2000/svg" xmlns:xlink="http://www.w3.org/1999/xlink" x="0px" y="0px"
	 viewBox="0 0 192 192" style="enable-background:new 0 0 192 192;" xml:space="preserve">
<symbol  id="material_x5F_product_x5F_icon_x5F_border" viewBox="0 -192 192 192">
	<polygon style="fill:none;" points="0,0 0,-192 192,-192 192,0 	"/>
</symbol>
<symbol  id="material_x5F_product_x5F_icon_x5F_grid" viewBox="0 -192 192 192">
	<g>
		<defs>
			<polygon id="SVGID_1_" points="192,-192 0,-192 0,0 192,0 			"/>
		</defs>
		<clipPath id="SVGID_2_">
			<use xlink:href="#SVGID_1_"  style="overflow:visible;"/>
		</clipPath>
		<g style="clip-path:url(#SVGID_2_);">
			<g>
				<line style="fill:none;stroke:#000000;stroke-width:0.25;stroke-miterlimit:10;" x1="4" y1="-192" x2="4" y2="0"/>
				<line style="fill:none;stroke:#000000;stroke-width:0.25;stroke-miterlimit:10;" x1="8" y1="-192" x2="8" y2="0"/>
				<line style="fill:none;stroke:#000000;stroke-width:0.25;stroke-miterlimit:10;" x1="12" y1="-192" x2="12" y2="0"/>
				<line style="fill:none;stroke:#000000;stroke-width:0.25;stroke-miterlimit:10;" x1="16" y1="-192" x2="16" y2="0"/>
				<line style="fill:none;stroke:#000000;stroke-width:0.25;stroke-miterlimit:10;" x1="20" y1="-192" x2="20" y2="0"/>
				<line style="fill:none;stroke:#000000;stroke-width:0.25;stroke-miterlimit:10;" x1="24" y1="-192" x2="24" y2="0"/>
				<line style="fill:none;stroke:#000000;stroke-width:0.25;stroke-miterlimit:10;" x1="28" y1="-192" x2="28" y2="0"/>
				<line style="fill:none;stroke:#000000;stroke-width:0.25;stroke-miterlimit:10;" x1="32" y1="-192" x2="32" y2="0"/>
				<line style="fill:none;stroke:#000000;stroke-width:0.25;stroke-miterlimit:10;" x1="36" y1="-192" x2="36" y2="0"/>
				<line style="fill:none;stroke:#000000;stroke-width:0.25;stroke-miterlimit:10;" x1="40" y1="-192" x2="40" y2="0"/>
				<line style="fill:none;stroke:#000000;stroke-width:0.25;stroke-miterlimit:10;" x1="44" y1="-192" x2="44" y2="0"/>
				<line style="fill:none;stroke:#000000;stroke-width:0.25;stroke-miterlimit:10;" x1="48" y1="-192" x2="48" y2="0"/>
				<line style="fill:none;stroke:#000000;stroke-width:0.25;stroke-miterlimit:10;" x1="52" y1="-192" x2="52" y2="0"/>
				<line style="fill:none;stroke:#000000;stroke-width:0.25;stroke-miterlimit:10;" x1="56" y1="-192" x2="56" y2="0"/>
				<line style="fill:none;stroke:#000000;stroke-width:0.25;stroke-miterlimit:10;" x1="60" y1="-192" x2="60" y2="0"/>
				<line style="fill:none;stroke:#000000;stroke-width:0.25;stroke-miterlimit:10;" x1="64" y1="-192" x2="64" y2="0"/>
				<line style="fill:none;stroke:#000000;stroke-width:0.25;stroke-miterlimit:10;" x1="68" y1="-192" x2="68" y2="0"/>
				<line style="fill:none;stroke:#000000;stroke-width:0.25;stroke-miterlimit:10;" x1="72" y1="-192" x2="72" y2="0"/>
				<line style="fill:none;stroke:#000000;stroke-width:0.25;stroke-miterlimit:10;" x1="76" y1="-192" x2="76" y2="0"/>
				<line style="fill:none;stroke:#000000;stroke-width:0.25;stroke-miterlimit:10;" x1="80" y1="-192" x2="80" y2="0"/>
				<line style="fill:none;stroke:#000000;stroke-width:0.25;stroke-miterlimit:10;" x1="84" y1="-192" x2="84" y2="0"/>
				<line style="fill:none;stroke:#000000;stroke-width:0.25;stroke-miterlimit:10;" x1="88" y1="-192" x2="88" y2="0"/>
				<line style="fill:none;stroke:#000000;stroke-width:0.25;stroke-miterlimit:10;" x1="92" y1="-192" x2="92" y2="0"/>
				<line style="fill:none;stroke:#000000;stroke-width:0.25;stroke-miterlimit:10;" x1="96" y1="-192" x2="96" y2="0"/>
				<line style="fill:none;stroke:#000000;stroke-width:0.25;stroke-miterlimit:10;" x1="100" y1="-192" x2="100" y2="0"/>
				<line style="fill:none;stroke:#000000;stroke-width:0.25;stroke-miterlimit:10;" x1="104" y1="-192" x2="104" y2="0"/>
				<line style="fill:none;stroke:#000000;stroke-width:0.25;stroke-miterlimit:10;" x1="108" y1="-192" x2="108" y2="0"/>
				<line style="fill:none;stroke:#000000;stroke-width:0.25;stroke-miterlimit:10;" x1="112" y1="-192" x2="112" y2="0"/>
				<line style="fill:none;stroke:#000000;stroke-width:0.25;stroke-miterlimit:10;" x1="116" y1="-192" x2="116" y2="0"/>
				<line style="fill:none;stroke:#000000;stroke-width:0.25;stroke-miterlimit:10;" x1="120" y1="-192" x2="120" y2="0"/>
				<line style="fill:none;stroke:#000000;stroke-width:0.25;stroke-miterlimit:10;" x1="124" y1="-192" x2="124" y2="0"/>
				<line style="fill:none;stroke:#000000;stroke-width:0.25;stroke-miterlimit:10;" x1="128" y1="-192" x2="128" y2="0"/>
				<line style="fill:none;stroke:#000000;stroke-width:0.25;stroke-miterlimit:10;" x1="132" y1="-192" x2="132" y2="0"/>
				<line style="fill:none;stroke:#000000;stroke-width:0.25;stroke-miterlimit:10;" x1="136" y1="-192" x2="136" y2="0"/>
				<line style="fill:none;stroke:#000000;stroke-width:0.25;stroke-miterlimit:10;" x1="140" y1="-192" x2="140" y2="0"/>
				<line style="fill:none;stroke:#000000;stroke-width:0.25;stroke-miterlimit:10;" x1="144" y1="-192" x2="144" y2="0"/>
				<line style="fill:none;stroke:#000000;stroke-width:0.25;stroke-miterlimit:10;" x1="148" y1="-192" x2="148" y2="0"/>
				<line style="fill:none;stroke:#000000;stroke-width:0.25;stroke-miterlimit:10;" x1="152" y1="-192" x2="152" y2="0"/>
				<line style="fill:none;stroke:#000000;stroke-width:0.25;stroke-miterlimit:10;" x1="156" y1="-192" x2="156" y2="0"/>
				<line style="fill:none;stroke:#000000;stroke-width:0.25;stroke-miterlimit:10;" x1="160" y1="-192" x2="160" y2="0"/>
				<line style="fill:none;stroke:#000000;stroke-width:0.25;stroke-miterlimit:10;" x1="164" y1="-192" x2="164" y2="0"/>
				<line style="fill:none;stroke:#000000;stroke-width:0.25;stroke-miterlimit:10;" x1="168" y1="-192" x2="168" y2="0"/>
				<line style="fill:none;stroke:#000000;stroke-width:0.25;stroke-miterlimit:10;" x1="172" y1="-192" x2="172" y2="0"/>
				<line style="fill:none;stroke:#000000;stroke-width:0.25;stroke-miterlimit:10;" x1="176" y1="-192" x2="176" y2="0"/>
				<line style="fill:none;stroke:#000000;stroke-width:0.25;stroke-miterlimit:10;" x1="180" y1="-192" x2="180" y2="0"/>
				<line style="fill:none;stroke:#000000;stroke-width:0.25;stroke-miterlimit:10;" x1="184" y1="-192" x2="184" y2="0"/>
				<line style="fill:none;stroke:#000000;stroke-width:0.25;stroke-miterlimit:10;" x1="188" y1="-192" x2="188" y2="0"/>
			</g>
			<g>
				<line style="fill:none;stroke:#000000;stroke-width:0.25;stroke-miterlimit:10;" x1="0" y1="-4" x2="192" y2="-4"/>
				<line style="fill:none;stroke:#000000;stroke-width:0.25;stroke-miterlimit:10;" x1="0" y1="-8" x2="192" y2="-8"/>
				<line style="fill:none;stroke:#000000;stroke-width:0.25;stroke-miterlimit:10;" x1="0" y1="-12" x2="192" y2="-12"/>
				<line style="fill:none;stroke:#000000;stroke-width:0.25;stroke-miterlimit:10;" x1="0" y1="-16" x2="192" y2="-16"/>
				<line style="fill:none;stroke:#000000;stroke-width:0.25;stroke-miterlimit:10;" x1="0" y1="-20" x2="192" y2="-20"/>
				<line style="fill:none;stroke:#000000;stroke-width:0.25;stroke-miterlimit:10;" x1="0" y1="-24" x2="192" y2="-24"/>
				<line style="fill:none;stroke:#000000;stroke-width:0.25;stroke-miterlimit:10;" x1="0" y1="-28" x2="192" y2="-28"/>
				<line style="fill:none;stroke:#000000;stroke-width:0.25;stroke-miterlimit:10;" x1="0" y1="-32" x2="192" y2="-32"/>
				<line style="fill:none;stroke:#000000;stroke-width:0.25;stroke-miterlimit:10;" x1="0" y1="-36" x2="192" y2="-36"/>
				<line style="fill:none;stroke:#000000;stroke-width:0.25;stroke-miterlimit:10;" x1="0" y1="-40" x2="192" y2="-40"/>
				<line style="fill:none;stroke:#000000;stroke-width:0.25;stroke-miterlimit:10;" x1="0" y1="-44" x2="192" y2="-44"/>
				<line style="fill:none;stroke:#000000;stroke-width:0.25;stroke-miterlimit:10;" x1="0" y1="-48" x2="192" y2="-48"/>
				<line style="fill:none;stroke:#000000;stroke-width:0.25;stroke-miterlimit:10;" x1="0" y1="-52" x2="192" y2="-52"/>
				<line style="fill:none;stroke:#000000;stroke-width:0.25;stroke-miterlimit:10;" x1="0" y1="-56" x2="192" y2="-56"/>
				<line style="fill:none;stroke:#000000;stroke-width:0.25;stroke-miterlimit:10;" x1="0" y1="-60" x2="192" y2="-60"/>
				<line style="fill:none;stroke:#000000;stroke-width:0.25;stroke-miterlimit:10;" x1="0" y1="-64" x2="192" y2="-64"/>
				<line style="fill:none;stroke:#000000;stroke-width:0.25;stroke-miterlimit:10;" x1="0" y1="-68" x2="192" y2="-68"/>
				<line style="fill:none;stroke:#000000;stroke-width:0.25;stroke-miterlimit:10;" x1="0" y1="-72" x2="192" y2="-72"/>
				<line style="fill:none;stroke:#000000;stroke-width:0.25;stroke-miterlimit:10;" x1="0" y1="-76" x2="192" y2="-76"/>
				<line style="fill:none;stroke:#000000;stroke-width:0.25;stroke-miterlimit:10;" x1="0" y1="-80" x2="192" y2="-80"/>
				<line style="fill:none;stroke:#000000;stroke-width:0.25;stroke-miterlimit:10;" x1="0" y1="-84" x2="192" y2="-84"/>
				<line style="fill:none;stroke:#000000;stroke-width:0.25;stroke-miterlimit:10;" x1="0" y1="-88" x2="192" y2="-88"/>
				<line style="fill:none;stroke:#000000;stroke-width:0.25;stroke-miterlimit:10;" x1="0" y1="-92" x2="192" y2="-92"/>
				<line style="fill:none;stroke:#000000;stroke-width:0.25;stroke-miterlimit:10;" x1="0" y1="-96" x2="192" y2="-96"/>
				<line style="fill:none;stroke:#000000;stroke-width:0.25;stroke-miterlimit:10;" x1="0" y1="-100" x2="192" y2="-100"/>
				<line style="fill:none;stroke:#000000;stroke-width:0.25;stroke-miterlimit:10;" x1="0" y1="-104" x2="192" y2="-104"/>
				<line style="fill:none;stroke:#000000;stroke-width:0.25;stroke-miterlimit:10;" x1="0" y1="-108" x2="192" y2="-108"/>
				<line style="fill:none;stroke:#000000;stroke-width:0.25;stroke-miterlimit:10;" x1="0" y1="-112" x2="192" y2="-112"/>
				<line style="fill:none;stroke:#000000;stroke-width:0.25;stroke-miterlimit:10;" x1="0" y1="-116" x2="192" y2="-116"/>
				<line style="fill:none;stroke:#000000;stroke-width:0.25;stroke-miterlimit:10;" x1="0" y1="-120" x2="192" y2="-120"/>
				<line style="fill:none;stroke:#000000;stroke-width:0.25;stroke-miterlimit:10;" x1="0" y1="-124" x2="192" y2="-124"/>
				<line style="fill:none;stroke:#000000;stroke-width:0.25;stroke-miterlimit:10;" x1="0" y1="-128" x2="192" y2="-128"/>
				<line style="fill:none;stroke:#000000;stroke-width:0.25;stroke-miterlimit:10;" x1="0" y1="-132" x2="192" y2="-132"/>
				<line style="fill:none;stroke:#000000;stroke-width:0.25;stroke-miterlimit:10;" x1="0" y1="-136" x2="192" y2="-136"/>
				<line style="fill:none;stroke:#000000;stroke-width:0.25;stroke-miterlimit:10;" x1="0" y1="-140" x2="192" y2="-140"/>
				<line style="fill:none;stroke:#000000;stroke-width:0.25;stroke-miterlimit:10;" x1="0" y1="-144" x2="192" y2="-144"/>
				<line style="fill:none;stroke:#000000;stroke-width:0.25;stroke-miterlimit:10;" x1="0" y1="-148" x2="192" y2="-148"/>
				<line style="fill:none;stroke:#000000;stroke-width:0.25;stroke-miterlimit:10;" x1="0" y1="-152" x2="192" y2="-152"/>
				<line style="fill:none;stroke:#000000;stroke-width:0.25;stroke-miterlimit:10;" x1="0" y1="-156" x2="192" y2="-156"/>
				<line style="fill:none;stroke:#000000;stroke-width:0.25;stroke-miterlimit:10;" x1="0" y1="-160" x2="192" y2="-160"/>
				<line style="fill:none;stroke:#000000;stroke-width:0.25;stroke-miterlimit:10;" x1="0" y1="-164" x2="192" y2="-164"/>
				<line style="fill:none;stroke:#000000;stroke-width:0.25;stroke-miterlimit:10;" x1="0" y1="-168" x2="192" y2="-168"/>
				<line style="fill:none;stroke:#000000;stroke-width:0.25;stroke-miterlimit:10;" x1="0" y1="-172" x2="192" y2="-172"/>
				<line style="fill:none;stroke:#000000;stroke-width:0.25;stroke-miterlimit:10;" x1="0" y1="-176" x2="192" y2="-176"/>
				<line style="fill:none;stroke:#000000;stroke-width:0.25;stroke-miterlimit:10;" x1="0" y1="-180" x2="192" y2="-180"/>
				<line style="fill:none;stroke:#000000;stroke-width:0.25;stroke-miterlimit:10;" x1="0" y1="-184" x2="192" y2="-184"/>
				<line style="fill:none;stroke:#000000;stroke-width:0.25;stroke-miterlimit:10;" x1="0" y1="-188" x2="192" y2="-188"/>
			</g>
			<g>
				<path d="M191.75-0.25v-191.5H0.25v191.5H191.75 M192,0H0v-192h192V0L192,0z"/>
			</g>
		</g>
	</g>
</symbol>
<symbol  id="material_x5F_product_x5F_icon_x5F_keylines" viewBox="0 -192 192 192">
	<g style="opacity:0.4;">
		<defs>
			<path id="SVGID_3_" style="opacity:0.4;" d="M0,0v-192h192V0H0z"/>
		</defs>
		<clipPath id="SVGID_4_">
			<use xlink:href="#SVGID_3_"  style="overflow:visible;"/>
		</clipPath>
		<g style="clip-path:url(#SVGID_4_);">
			
				<line style="fill:none;stroke:#000000;stroke-width:0.25;stroke-miterlimit:10;" x1="0.25" y1="-0.25" x2="191.75" y2="-191.75"/>
			<g>
				<path d="M191.75-0.25v-191.5H0.25v191.5H191.75 M192,0H0v-192h192V0L192,0z"/>
			</g>
			
				<line style="fill:none;stroke:#000000;stroke-width:0.25;stroke-miterlimit:10;" x1="191.75" y1="-0.25" x2="0.25" y2="-191.75"/>
			<line style="fill:none;stroke:#000000;stroke-width:0.25;stroke-miterlimit:10;" x1="124" y1="0" x2="124" y2="-192"/>
			<line style="fill:none;stroke:#000000;stroke-width:0.25;stroke-miterlimit:10;" x1="68" y1="0" x2="68" y2="-192"/>
			<line style="fill:none;stroke:#000000;stroke-width:0.25;stroke-miterlimit:10;" x1="192" y1="-124" x2="0" y2="-124"/>
			<line style="fill:none;stroke:#000000;stroke-width:0.25;stroke-miterlimit:10;" x1="192" y1="-68" x2="0" y2="-68"/>
			<path style="fill:none;stroke:#000000;stroke-width:0.25;stroke-miterlimit:10;" d="M136-96c0-22.091-17.909-40-40-40
				c-22.091,0-40,17.909-40,40c0,22.091,17.909,40,40,40C118.091-56,136-73.909,136-96z"/>
			<line style="fill:none;stroke:#000000;stroke-width:0.25;stroke-miterlimit:10;" x1="0" y1="-96" x2="192" y2="-96"/>
			<line style="fill:none;stroke:#000000;stroke-width:0.25;stroke-miterlimit:10;" x1="96" y1="0" x2="96" y2="-192"/>
		</g>
		<g style="clip-path:url(#SVGID_4_);">
			<g>
				<path d="M96-8.25c48.386,0,87.75-39.364,87.75-87.75S144.386-183.75,96-183.75S8.25-144.386,8.25-96S47.614-8.25,96-8.25 M96-8
					C47.399-8,8-47.399,8-96s39.399-88,88-88c48.601,0,88,39.399,88,88S144.601-8,96-8L96-8z"/>
			</g>
		</g>
		<g style="clip-path:url(#SVGID_4_);">
			<g>
				<path d="M160-20.25c6.479,0,11.75-5.271,11.75-11.75v-128c0-6.479-5.271-11.75-11.75-11.75H32c-6.479,0-11.75,5.271-11.75,11.75
					v128c0,6.479,5.271,11.75,11.75,11.75H160 M160-20H32c-6.6,0-12-5.4-12-12v-128c0-6.6,5.4-12,12-12h128c6.6,0,12,5.4,12,12v128
					C172-25.4,166.6-20,160-20L160-20z"/>
			</g>
		</g>
		<g style="clip-path:url(#SVGID_4_);">
			<g>
				<path d="M148-8.25c6.479,0,11.75-5.271,11.75-11.75v-152c0-6.479-5.271-11.75-11.75-11.75H44c-6.479,0-11.75,5.271-11.75,11.75
					v152c0,6.479,5.271,11.75,11.75,11.75H148 M148-8H44c-6.6,0-12-5.4-12-12v-152c0-6.6,5.4-12,12-12h104c6.6,0,12,5.4,12,12v152
					C160-13.4,154.6-8,148-8L148-8z"/>
			</g>
		</g>
		<g style="clip-path:url(#SVGID_4_);">
			<g>
				<path d="M172-32.25c6.479,0,11.75-5.271,11.75-11.75v-104c0-6.479-5.271-11.75-11.75-11.75H20c-6.479,0-11.75,5.271-11.75,11.75
					v104c0,6.479,5.271,11.75,11.75,11.75H172 M172-32H20c-6.6,0-12-5.4-12-12v-104c0-6.6,5.4-12,12-12h152c6.6,0,12,5.4,12,12v104
					C184-37.4,178.6-32,172-32L172-32z"/>
			</g>
		</g>
	</g>
</symbol>
<symbol  id="material_x5F_product_x5F_icon_x5F_trim" viewBox="0 -192 192 192">
	<path style="fill:#DB4437;fill-opacity:0.4;" d="M0,0v-192h192V0H0z M188-184H4V-4h184V-184z"/>
</symbol>
<g id="back" style="display:none;">
	<path style="display:inline;fill:#616161;" d="M160,172H32c-6.6,0-12-5.4-12-12V32c0-6.6,5.4-12,12-12h128c6.6,0,12,5.4,12,12v128
		C172,166.6,166.6,172,160,172z"/>
</g>
<g id="back_x2C__edge" style="display:none;">
	<path style="display:inline;fill:#FFFFFF;fill-opacity:0.1;" d="M160,20H32c-6.6,0-12,5.4-12,12v1c0-6.6,5.4-12,12-12h128
		c6.6,0,12,5.4,12,12v-1C172,25.4,166.6,20,160,20z"/>
	<path style="display:inline;fill:#212121;fill-opacity:0.2;" d="M160,172H32c-6.6,0-12-5.4-12-12v-1c0,6.6,5.4,12,12,12h128
		c6.6,0,12-5.4,12-12v1C172,166.6,166.6,172,160,172z"/>
</g>
<g id="front">
	<g>
		<g style="opacity:0.75;">
			<circle cx="95.919" cy="95.88" r="86.684"/>
			<circle cx="95.919" cy="96.932" r="86.684"/>
		</g>
		<g>
			<circle style="fill:#9EC2DE;" cx="95.919" cy="94.828" r="86.684"/>
			<circle style="fill:#F4F4F4;" cx="95.919" cy="95.88" r="86.684"/>
		</g>
	</g>
	<g>
		<path style="fill:#003C6B;" d="M142.501,123c-9.671,16-26.59,28.17-46.638,28.17c-30.539,0-55.291-24.726-55.291-55.269
			s24.752-55.28,55.291-55.28c15.271,0,28.941,6.413,38.93,16.438l-7.837,7.894l38.825,19.402l-11.676-46.559l-6.111,6.065
			c-13.328-13.355-31.73-21.661-52.096-21.661c-40.708,0-73.644,33.009-73.644,73.721S55.163,169.6,95.871,169.6
			c30.563,0,58.761-20.6,69.909-46.6H142.501z"/>
		<path style="fill:#005EA8;" d="M144,124c-9.97,16.486-27.412,28.96-48.081,28.96c-31.483,0-57.001-25.531-57.001-57.019
			s25.517-57.01,57.001-57.01c15.743,0,29.836,6.601,40.134,16.936L127.974,64L168,84l-12.037-48l-6.3,6.252
			c-13.74-13.768-32.712-22.331-53.707-22.331c-41.967,0-75.922,34.03-75.922,76.001s33.927,76.038,75.894,76.038
			c31.509,0,60.579-20.95,72.072-47.96H144z"/>
	</g>
	<g>
		<path style="fill:#A50013;" d="M95.919,57.447c-14.871,0-26.932,12.057-26.932,26.932c0,20.199,26.932,50.017,26.932,50.017
			s26.932-29.818,26.932-50.017C122.852,69.504,110.791,57.447,95.919,57.447z M95.92,92.194c-5.311,0-9.62-4.306-9.62-9.619
			c0-5.313,4.31-9.619,9.62-9.619c5.313,0,9.617,4.306,9.617,9.619C105.538,87.888,101.234,92.194,95.92,92.194z"/>
		<path style="fill:#A50013;" d="M95.919,54.241c-16.111,0-29.177,13.062-29.177,29.177c0,21.883,29.177,54.185,29.177,54.185
			s29.177-32.303,29.177-54.185C125.096,67.303,112.03,54.241,95.919,54.241z M95.921,91.884c-5.753,0-10.422-4.665-10.422-10.42
			c0-5.755,4.669-10.42,10.422-10.42c5.756,0,10.419,4.665,10.419,10.42C106.339,87.219,101.677,91.884,95.921,91.884z"/>
		<path style="fill:#E2001A;" d="M95.919,55.844c-15.491,0-28.055,12.56-28.055,28.055C67.865,104.94,95.919,136,95.919,136
			s28.055-31.06,28.055-52.101C123.974,68.404,111.41,55.844,95.919,55.844z M95.921,92.039c-5.532,0-10.021-4.486-10.021-10.019
			c0-5.534,4.489-10.02,10.021-10.02c5.535,0,10.018,4.486,10.018,10.02C105.938,87.553,101.455,92.039,95.921,92.039z"/>
	</g>
	<g style="display:none;">
		<g style="display:inline;">
			
				<image style="overflow:visible;opacity:0.2;" width="937" height="937" xlink:href="E56F5888.png"  transform="matrix(0.24 0 0 0.24 -16.3457 -8.284)">
			</image>
			<circle style="fill:#F5F5F5;" cx="96" cy="95.42" r="86.42"/>
		</g>
	</g>
</g>
<g id="front_x2C__edge" style="display:none;">
	<path style="display:inline;fill:#FFFFFF;fill-opacity:0.2;" d="M96,11.16c47.366,0,85.811,38.111,86.392,85.34
		c0.004-0.361,0.027-0.718,0.027-1.08C182.42,47.691,143.728,9,96,9S9.58,47.691,9.58,95.42c0,0.362,0.023,0.719,0.027,1.08
		C10.189,49.272,48.634,11.16,96,11.16z"/>
	<path style="display:inline;fill:#212121;fill-opacity:0.1;" d="M96,181.84c47.366,0,85.811-38.111,86.392-85.34
		c0.004,0.361,0.027,0.718,0.027,1.08c0,47.728-38.691,86.42-86.42,86.42S9.58,145.309,9.58,97.58c0-0.362,0.023-0.719,0.027-1.08
		C10.189,143.728,48.634,181.84,96,181.84z"/>
</g>
<g id="finish" style="display:none;">
	<radialGradient id="SVGID_5_" cx="23.7676" cy="23.9332" r="204.6249" gradientUnits="userSpaceOnUse">
		<stop  offset="0" style="stop-color:#FFFFFF;stop-opacity:0.1"/>
		<stop  offset="1" style="stop-color:#FFFFFF;stop-opacity:0"/>
	</radialGradient>
	<path style="display:inline;fill:url(#SVGID_5_);" d="M160,172H32c-6.6,0-12-5.4-12-12V32c0-6.6,5.4-12,12-12h128
		c6.6,0,12,5.4,12,12v128C172,166.6,166.6,172,160,172z"/>
</g>
<g id="border" style="display:none;">
	
		<use xlink:href="#material_x5F_product_x5F_icon_x5F_border"  width="192" height="192" y="-192" transform="matrix(1 0 0 -1 0 0)" style="display:inline;overflow:visible;"/>
</g>
<g id="grid" style="display:none;">
	
		<use xlink:href="#material_x5F_product_x5F_icon_x5F_grid"  width="192" height="192" id="XMLID_1_" x="0" y="-192" transform="matrix(1 0 0 -1 0 0)" style="display:inline;overflow:visible;opacity:0.15;"/>
</g>
<g id="keylines" style="display:none;">
	
		<use xlink:href="#material_x5F_product_x5F_icon_x5F_keylines"  width="192" height="192" x="0" y="-192" transform="matrix(1 0 0 -1 0 0)" style="display:inline;overflow:visible;"/>
</g>
<g id="trim_area" style="display:none;">
	
		<use xlink:href="#material_x5F_product_x5F_icon_x5F_trim"  width="192" height="192" y="-192" transform="matrix(1 0 0 -1 0 0)" style="display:inline;overflow:visible;"/>
</g>
</svg>
